<svg xmlns="http://www.w3.org/2000/svg" enable-background="new 0 0 512 512" viewBox="0 0 512 512" id="progress"><path fill="#e5e3e5" d="M70.66,38.068h255.386l90.597,90.598v369.963c0,7.393-5.977,13.372-13.372,13.372H70.66c-7.393,0-13.372-5.979-13.372-13.372V51.44C57.288,44.047,63.267,38.068,70.66,38.068z"></path><path fill="#f2f0f0" d="M108.727,0.002l255.386,0l90.597,90.598v369.963c0,7.393-5.977,13.372-13.372,13.372H108.727c-7.393,0-13.372-5.979-13.372-13.372V13.373C95.355,5.98,101.334,0.002,108.727,0.002z"></path><path d="M454.699,90.58v370.002c0,7.352-5.991,13.344-13.344,13.344h-22.877c7.353,0,13.345-5.992,13.345-13.344V90.58L341.243,0h22.876L454.699,90.58z" opacity=".08"></path><path fill="#e5e3e5" d="M454.712 90.6l-77.227-.001c-7.395 0-13.372-5.979-13.373-13.372L364.109 0 454.712 90.6zM416.403 186.733l-16.541 42.068c-.924 2.41-4.142 2.888-5.723.874l-7.717-9.649-75.517 60.179c-2.19 1.749-5.02 2.418-7.748 1.861l-67.375-14.035-88.513 78.514c-1.768 1.532-4.406 1.374-5.967-.36l-6.829-7.71c-1.53-1.737-1.375-4.406.363-5.936l92.045-81.609c2.206-1.969 5.213-2.776 8.102-2.167l67.691 14.075 72.112-57.469-8.849-11.07c-1.612-2.013-.416-5.005 2.151-5.405l44.678-6.72C415.336 181.805 417.358 184.32 416.403 186.733z"></path><path fill="#ffce29" d="M188.112,362.906v76.807c0,3.162-2.564,5.726-5.726,5.726h-28.234c-3.162,0-5.726-2.564-5.726-5.726v-76.807c0-3.162,2.564-5.726,5.726-5.726h28.234C185.548,357.18,188.112,359.744,188.112,362.906z"></path><path fill="#13bd79" d="M259.287,322.382v117.331c0,3.162-2.564,5.726-5.726,5.726h-28.234c-3.162,0-5.726-2.564-5.726-5.726V322.382c0-3.162,2.564-5.726,5.726-5.726h28.234C256.724,316.656,259.287,319.219,259.287,322.382z"></path><path fill="#66d5f2" d="M330.463,322.382v117.331c0,3.162-2.564,5.726-5.726,5.726h-28.234c-3.162,0-5.726-2.564-5.726-5.726V322.382c0-3.162,2.564-5.726,5.726-5.726h28.234C327.899,316.656,330.463,319.219,330.463,322.382z"></path><path fill="#f96464" d="M401.638,270.594v169.119c0,3.162-2.564,5.726-5.726,5.726h-28.234c-3.162,0-5.726-2.564-5.726-5.726V270.594c0-3.162,2.564-5.726,5.726-5.726h28.234C399.075,264.868,401.638,267.431,401.638,270.594z"></path><path d="M188.099 362.906v76.784c0 3.207-2.576 5.726-5.726 5.726h-8.245c3.15 0 5.726-2.519 5.726-5.726v-76.784c0-3.15-2.576-5.726-5.726-5.726h8.245C185.523 357.18 188.099 359.756 188.099 362.906zM259.273 322.366V439.69c0 3.207-2.576 5.726-5.726 5.726h-8.245c3.149 0 5.726-2.519 5.726-5.726V322.366c0-3.15-2.577-5.726-5.726-5.726h8.245C256.696 316.64 259.273 319.216 259.273 322.366zM330.446 322.366V439.69c0 3.207-2.519 5.726-5.726 5.726h-8.245c3.149 0 5.726-2.519 5.726-5.726V322.366c0-3.15-2.577-5.726-5.726-5.726h8.245C327.927 316.64 330.446 319.216 330.446 322.366zM401.619 270.603V439.69c0 3.207-2.519 5.726-5.726 5.726h-8.245c3.149 0 5.726-2.519 5.726-5.726V270.603c0-3.15-2.577-5.726-5.726-5.726h8.245C399.1 264.877 401.619 267.454 401.619 270.603z" opacity=".08"></path><path fill="#66d5f2" d="M181.114,140.811c-31.042,0-56.157-25.115-56.157-56.157c0-31.042,25.115-56.158,56.157-56.158s56.157,25.115,56.157,56.158C237.271,115.696,212.156,140.811,181.114,140.811z"></path><path fill="#fff" d="M203.364 68.6c0 12.291-9.947 22.263-22.238 22.263-12.316 0-22.263-9.972-22.263-22.263 0-12.291 9.947-22.263 22.263-22.263C193.417 46.337 203.364 56.309 203.364 68.6zM227.129 116.838c-10.143 14.49-26.959 23.973-46.015 23.973-19.056 0-35.872-9.484-46.015-23.973 6.806-12.338 20.11-20.198 34.555-20.198h22.92C207.063 96.641 220.367 104.456 227.129 116.838z"></path><path fill="#e5e3e5" d="M292.764,175.68L292.764,175.68c0,5.184-4.203,9.387-9.387,9.387H134.337c-5.184,0-9.387-4.203-9.387-9.387v0c0-5.184,4.203-9.387,9.387-9.387h149.039C288.561,166.293,292.764,170.496,292.764,175.68z"></path><g><path fill="#e5e3e5" d="M219.602,216.635L219.602,216.635c0,5.184-4.203,9.387-9.387,9.387h-75.878c-5.184,0-9.387-4.203-9.387-9.387v0c0-5.184,4.203-9.387,9.387-9.387h75.878C215.399,207.248,219.602,211.451,219.602,216.635z"></path></g></svg>